<svg xmlns="http://www.w3.org/2000/svg" width="240.298" height="83.632" viewBox="0 0 240.298 83.632"><defs><style>.a{fill:#414042;}.b{fill:#009444;}.c{fill:#006838;}</style></defs><g transform="translate(-943.59 43)"><path class="a" d="M232.538,166.782V152.46h4.3v14.322h15.724v3.953H236.842v28.9c0,6.411,3.778,8.7,8.962,8.7a15.15,15.15,0,0,0,6.59-1.581V210.8a16.452,16.452,0,0,1-7.3,1.581c-6.936,0-12.579-3.778-12.579-12.3V170.735" transform="translate(711.07 -185.01)"/><path class="a" d="M307.752,228.9c-13.266,0-22.912-10.719-22.912-23.28v-.175c0-12.579,9.749-23.46,23.1-23.46,13.266,0,22.912,10.719,22.912,23.285v.175C330.856,218.011,321.1,228.9,307.752,228.9ZM326.2,205.45c0-10.809-8.086-19.417-18.446-19.417-10.634,0-18.275,8.7-18.275,19.241v.175c0,10.782,8.086,19.412,18.451,19.412,10.629,0,18.271-8.7,18.271-19.237Z" transform="translate(682.255 -201.274)"/><path class="a" d="M428.6,228.91c-8.962,0-14.758-5.094-18.451-10.719v23.72h-4.3V183.06h4.3v10.014C414,187.18,419.732,182,428.6,182c10.8,0,21.789,8.7,21.789,23.285v.175C450.393,220.038,439.409,228.91,428.6,228.91Zm17.13-23.455c0-11.775-8.167-19.318-17.57-19.318-9.313,0-18.271,7.821-18.271,19.241v.175c0,11.51,8.958,19.241,18.271,19.241,9.753,0,17.57-7.116,17.57-19.151Z" transform="translate(615.608 -201.28)"/><path class="b" d="M682.91,190.227H672.631v18.446H659.1V147.18h25.113c14.672,0,23.545,8.7,23.545,21.263v.175C707.771,182.85,696.7,190.227,682.91,190.227ZM694.065,168.7c0-6.065-4.214-9.313-10.98-9.313H672.631v18.8h10.714c6.766,0,10.719-4.043,10.719-9.313Z" transform="translate(476.13 -182.103)"/><path class="c" d="M544.328,202.253a11.883,11.883,0,0,0,2.938-1.393,14.884,14.884,0,0,0,4.2-4.308c-.562.84-4.987.723-5.872.674a12.552,12.552,0,0,1-6.582-2.314c-4.2-3.032-5.422-8.01-5.422-12.943V147.18H520.06v35.145a35.255,35.255,0,0,0,1.887,12.714c1.554,4,5.391,6.289,9.4,7.228S540.339,203.52,544.328,202.253Z" transform="translate(552.707 -182.103)"/><path class="b" d="M599.193,143.729,586.916,129.2l-12.278,14.529h5.786c.04,5.094.175,11.469.18,12.238.117,12.718,1.523,30.908-10.481,39.085a20.027,20.027,0,0,1-11.6,3.347c-.674,0-1.348-.036-2.058-.085a34.34,34.34,0,0,0,10.261,1.442c6.82,0,14.3-1.86,19.318-6.739,5.84-5.665,7.669-13.158,7.669-21.038V143.729Z" transform="translate(532.654 -172.2)"/></g></svg>