<svg id="Layer_1" data-name="Layer 1" xmlns="http://www.w3.org/2000/svg" viewBox="0 0 570.54 409.5"><defs><style>.cls-1{fill:#00713b;}</style></defs><path class="cls-1" d="M165.52,17.2h.7c8.9-.7,17.1-1.5,26.8-2.2,4.5,0,7.4-3.7,6.7-8.2,0-4.5-3.7-7.4-8.2-6.7-8.9.7-17.9,1.5-26.8,2.2-3.7.7-7.4,3.7-6.7,8.2C158.12,14.2,161,17.2,165.52,17.2Z"/><path class="cls-1" d="M211.72,103.5a90.47,90.47,0,0,1,147.4,0l16.4-2.2a105.52,105.52,0,0,0-180.2,0c5.2.7,11.1,1.5,16.4,2.2Z"/><path class="cls-1" d="M43.42,120.6V302.2a7,7,0,0,0,7.4,7.4,7,7,0,0,0,7.4-7.4V120.6a7,7,0,0,0-7.4-7.4,7.44,7.44,0,0,0-7.4,7.4Z"/><path class="cls-1" d="M8.42,267.3a7,7,0,0,0,7.4-7.4V71.5c54.3,25.3,111.7,43.2,169.7,52.1a91.51,91.51,0,0,0-4.5,18.6c-11.9.7-21.6,11.2-21.6,23.1v11.2h-2.1a7,7,0,0,0-7.4,7.4v36.5a7,7,0,0,0,7.4,7.4h2.2V239a23.92,23.92,0,0,0,23.8,23.8H187c7.4,23.8,21.6,47.6,39.5,64.8,0,5.2-.7,28.3-29,47.6,6.7.7,13.4,2.2,20.8,3a73.88,73.88,0,0,0,22.3-39.5A76.87,76.87,0,0,0,286,353.6c16.4,0,32-6,45.4-14.9,2.2,10.4,7.4,25.3,22.3,39.5a174.14,174.14,0,0,0,20.1-3c-27.5-19.4-29-42.4-28.3-47.6,17.9-17.1,32-40.9,39.5-64.8h3.7a23.92,23.92,0,0,0,23.8-23.8V227.8h3.7a7,7,0,0,0,7.4-7.4V183.9a7,7,0,0,0-7.4-7.4h-3.7V165.3a23.54,23.54,0,0,0-21.6-23.1,70.33,70.33,0,0,0-4.5-18.6c61.8-9.7,122.1-29,180.2-57.3,3-1.5,4.5-4.5,3.7-7.4a15.21,15.21,0,0,0-.7-5.2C550.22,23.2,457.22,9,418.52,4.6c-4.5-.7-7.4,2.2-8.2,6.7-.7,3.7,2.2,7.4,6.7,8.2,78.2,8.9,119.9,24.6,135.5,36.5-170.5,80.4-364.8,80.4-535.3-1.5,3.7-8.9,33.5-23.8,105.7-34.2,3.7-.7,6.7-4.5,6-8.2s-4.5-6.7-8.2-6C44.82,17.3,4.62,33.6,2.32,55.2c0,.7-.7,1.5-.7,2.2V259.9c-.6,4.4,2.4,7.4,6.8,7.4Zm277,72.2c-37.2,0-69.2-38-83.4-76.7h50.6c3,0,5.2-1.5,6.7-4.5v-.7l16.4-27.5a10.22,10.22,0,0,1,9.7-6,11.64,11.64,0,0,1,9.7,6l15.6,27.5.7,1.5c1.5,2.2,3.7,4.5,6.7,4.5h50.6c-14.1,37.2-46.1,75.9-83.3,75.9Zm-85.7-213.7a657,657,0,0,0,85.6,6,648.2,648.2,0,0,0,85.6-6c2.2,5.2,3,10.4,4.5,16.4H196a115.73,115.73,0,0,1,3.7-16.4Z"/><path class="cls-1" d="M415.62,394.6c52.1-11.9,102.7-32,150.4-58.8a.69.69,0,0,0,.7-.7c.7,0,.7-.7,1.5-1.5l.7-.7c0-.7.7-.7.7-1.5V123a7.44,7.44,0,0,0-7.4-7.4h0a7,7,0,0,0-7.4,7.4V324a565.3,565.3,0,0,1-166,60.3A211.79,211.79,0,0,1,365,388a580.07,580.07,0,0,1-160.1,0c-8.2-1.5-15.6-2.2-23.8-3.7a551.3,551.3,0,0,1-169.7-62.5c-3-1.5-6-1.5-8.2.7L1,324.7c-2.2,3.7-.7,8.2,3,10.4,47.6,26.8,98.3,46.9,150.4,58.8l29,6.7a576.69,576.69,0,0,0,101.2,8.9,596.49,596.49,0,0,0,102-8.9"/></svg>